<svg width="115" height="34" viewBox="0 0 115 34" fill="none" xmlns="http://www.w3.org/2000/svg">
<g clip-path="url(#clip0_2061_2252)">
<path d="M23.607 26.3286C24.0219 26.7733 24.7256 27.2849 25.4732 27.4293C25.8363 27.4994 26.2018 27.4819 26.5585 27.3379C26.9155 27.1938 27.3007 26.9077 27.6786 26.3812L28.5448 26.9967C28.0716 27.6561 27.5345 28.0864 26.9583 28.3191C26.3818 28.5519 25.8029 28.5717 25.2704 28.4688C24.2269 28.2673 23.3345 27.5928 22.8272 27.0492L23.607 26.3286Z" fill="#111117"/>
<path d="M29.3886 5.51025V8.12656C32.5728 10.9879 39.6685 16.5323 45.7808 18.7159L44.9179 21.1076C38.0273 18.6459 30.2538 12.4004 27.243 9.61817L26.8349 9.24134V8.05169H25.3452V5.51025H29.3886Z" fill="#111117"/>
<path d="M22.5787 5.51025V8.12656C19.3945 10.9879 12.2987 16.5323 6.18652 18.7159L7.0494 21.1076C13.94 18.6459 21.7135 12.4004 24.7242 9.61817L25.1324 9.24134V8.05169H26.6221V5.51025H22.5787Z" fill="#111117"/>
<path d="M24.2101 11.2504C23.7253 12.5046 22.2623 14.3942 19.8059 16.5496C17.367 18.6897 13.998 21.0491 9.77561 23.2552L10.2702 24.1926C14.5601 21.9512 18.0011 19.5453 20.51 17.3438C23.0013 15.1578 24.6242 13.1291 25.2035 11.6301L24.2101 11.2504Z" fill="#111117"/>
<path d="M27.5444 11.2504C28.0292 12.5046 29.4922 14.3942 31.9485 16.5496C34.3874 18.6897 37.7564 21.0491 41.9789 23.2552L41.4842 24.1926C37.1944 21.9512 33.7533 19.5453 31.2444 17.3438C28.7532 15.1578 27.1303 13.1291 26.551 11.6301L27.5444 11.2504Z" fill="#111117"/>
<path d="M21.5641 12.7602C17.9785 16.3286 15.2618 18.6167 9.37326 21.3376L9.82133 22.2981C15.8501 19.5124 18.6665 17.1413 22.3164 13.5089L21.5641 12.7602Z" fill="#111117"/>
<path d="M30.1904 12.7602C33.776 16.3286 36.4926 18.6167 42.3812 21.3376L41.9331 22.2981C35.9044 19.5124 33.088 17.1413 29.4381 13.5089L30.1904 12.7602Z" fill="#111117"/>
<path d="M18.2776 21.9859C18.7018 21.4662 19.9168 20.9006 21.8966 21.224L21.7245 22.2688C19.9601 21.9806 19.1988 22.5362 19.103 22.6535L18.2776 21.9859Z" fill="#111117"/>
<path d="M27.6828 22.0877C28.1007 21.5205 29.3257 20.882 31.3272 21.2443L31.1368 22.2862C29.3941 21.9708 28.6429 22.5752 28.5407 22.714L27.6828 22.0877Z" fill="#111117"/>
<path d="M23.2171 22.8767C23.2171 23.8125 22.4549 24.571 21.5146 24.571C20.5744 24.571 19.8122 23.8125 19.8122 22.8767C19.8122 21.941 20.5744 21.1825 21.5146 21.1825C22.4549 21.1825 23.2171 21.941 23.2171 22.8767Z" fill="#111117"/>
<path d="M32.5807 22.8767C32.5807 23.8125 31.8185 24.571 30.8783 24.571C29.938 24.571 29.1758 23.8125 29.1758 22.8767C29.1758 21.941 29.938 21.1825 30.8783 21.1825C31.8185 21.1825 32.5807 21.941 32.5807 22.8767Z" fill="#111117"/>
<path d="M52.9668 8.01472H62.7284V10.5812H56.1914V16.0653H56.8934C58.7799 16.0653 61.7193 15.8898 63.6936 15.5169L63.9349 18.0395C61.6535 18.5441 58.407 18.6757 56.1037 18.6757H52.9668V8.01472ZM55.4017 20.1015H69.2654V27.4502H66.0627V22.8436H55.4017V20.1015ZM66.1066 7.55406H69.2873V18.8512H66.1066V14.2446H61.478V11.7658H66.1066V7.55406Z" fill="#111117"/>
<path d="M72.3459 11.6561V9.00184H78.4002L78.1151 6.58887H82.1075L81.8442 9.00184H87.9863V11.6561H85.0688C86.056 12.38 86.6263 13.3452 86.6263 14.3981C86.6263 17.4034 84.0159 19.268 80.1332 19.268C76.1189 19.268 73.7059 17.4034 73.7059 14.3981C73.7059 13.3452 74.2324 12.38 75.1756 11.6561H72.3459ZM70.8761 20.4525H89.4561V23.1507H81.8662V27.2089H78.466V23.1507H70.8761V20.4525ZM80.1332 12.0729C78.0712 12.0729 76.777 12.9284 76.777 14.3981C76.7989 15.8679 78.0712 16.7453 80.1332 16.7453C82.1513 16.7453 83.5552 15.8459 83.5333 14.3981C83.5333 12.9284 82.1513 12.0729 80.1332 12.0729Z" fill="#111117"/>
<path d="M92.1636 18.8292H106.291V27.0334H92.1636V18.8292ZM90.5842 8.08053H99.9949V10.7567C99.9949 12.5994 99.271 14.4859 97.2309 15.8679C95.4321 17.0963 92.9095 17.9518 90.672 18.2589L89.992 15.4511C91.6152 15.1878 93.3263 14.6614 94.5547 14.0691C96.0683 13.3452 96.836 12.402 96.836 11.0858V10.8445H90.5842V8.08053ZM103.088 7.55406H106.269V11.0858H109.23V14.0472H106.269V17.7982H103.088V7.55406ZM95.3444 24.423H103.11V21.4616H95.3444V24.423Z" fill="#111117"/>
</g>
<defs>
<clipPath id="clip0_2061_2252">
<rect width="115" height="33" fill="white" transform="translate(0 0.5)"/>
</clipPath>
</defs>
</svg>
