<svg width="18" height="20" viewBox="0 0 18 20" fill="none" xmlns="http://www.w3.org/2000/svg">
<path d="M9.29679 0.0146484C9.98343 0.0829076 10.6288 0.386708 11.121 0.878906C11.5285 1.28642 11.8043 1.79946 11.9267 2.35352C13.0241 2.97015 13.9628 3.83884 14.664 4.89062C15.4693 6.09859 15.9309 7.50292 15.9989 8.95312C15.9997 8.96874 15.9999 8.98437 15.9999 9V11.9258C16.0614 12.3754 16.2226 12.8057 16.4745 13.1836C16.7351 13.5744 17.0844 13.8984 17.4931 14.1299C17.8881 14.3537 18.0824 14.8158 17.9667 15.2549C17.851 15.694 17.454 16 16.9999 16H0.999918C0.545809 16 0.148882 15.694 0.0331212 15.2549C-0.082559 14.8158 0.111784 14.3537 0.506754 14.1299C0.915458 13.8984 1.26478 13.5744 1.52531 13.1836C1.77724 12.8057 1.93841 12.3754 1.99992 11.9258V9C1.99992 8.98437 2.00016 8.96874 2.00089 8.95312C2.06896 7.50292 2.53054 6.09859 3.33586 4.89062C4.03689 3.83908 4.97507 2.97013 6.07218 2.35352C6.19456 1.79938 6.47126 1.28647 6.87882 0.878906C7.44143 0.316297 8.20427 0 8.99992 0L9.29679 0.0146484ZM8.99992 2C8.7347 2 8.48042 2.10543 8.29289 2.29297C8.10535 2.48051 7.99992 2.73478 7.99992 3L7.98918 3.14355C7.94158 3.47199 7.73331 3.75972 7.42765 3.9043C6.4433 4.36975 5.6039 5.09402 4.99992 6C4.39829 6.90244 4.05306 7.95104 3.99992 9.03418V12C3.99992 12.0401 3.9979 12.0803 3.99308 12.1201C3.91281 12.7833 3.6994 13.422 3.36906 14H14.6308C14.3004 13.422 14.087 12.7833 14.0068 12.1201C14.0019 12.0803 13.9999 12.0401 13.9999 12V9.03418C13.9468 7.95104 13.6015 6.90244 12.9999 6C12.3959 5.09402 11.5565 4.36975 10.5722 3.9043C10.2227 3.73897 9.99992 3.38665 9.99992 3C9.99992 2.73478 9.89449 2.48051 9.70695 2.29297C9.51941 2.10543 9.26513 2 8.99992 2Z" fill="#54545E"/>
<path d="M4.99992 16V15C4.99992 14.4477 5.44763 14 5.99992 14C6.5522 14 6.99992 14.4477 6.99992 15V16C6.99992 16.5304 7.21078 17.039 7.58586 17.4141C7.96093 17.7891 8.46948 18 8.99992 18L9.19718 17.9902C9.65518 17.9449 10.0857 17.7423 10.414 17.4141C10.7891 17.039 10.9999 16.5304 10.9999 16V15C10.9999 14.4477 11.4476 14 11.9999 14C12.5522 14 12.9999 14.4477 12.9999 15V16C12.9999 17.0609 12.5782 18.078 11.828 18.8281C11.1248 19.5314 10.1868 19.9461 9.19816 19.9951L8.99992 20C7.93905 20 6.92194 19.5783 6.17179 18.8281C5.42165 18.078 4.99992 17.0609 4.99992 16Z" fill="#54545E"/>
</svg>
