<svg width="20" height="20" viewBox="0 0 20 20" fill="none" xmlns="http://www.w3.org/2000/svg">
<path d="M16.2472 11.6982L17.8855 14.5366C17.9529 14.6534 17.991 14.7849 17.9964 14.9197C18.0019 15.0545 17.9746 15.1886 17.9168 15.3106C17.859 15.4325 17.7725 15.5386 17.6648 15.6197C17.557 15.7009 17.4311 15.7547 17.298 15.7766L17.2038 15.7857L17.1105 15.7849L14.6663 15.6266L13.5805 17.8232C13.5215 17.9422 13.4351 18.0453 13.3282 18.1241C13.2214 18.2029 13.0973 18.2551 12.9662 18.2763C12.8352 18.2975 12.701 18.2871 12.5747 18.246C12.4485 18.2049 12.3339 18.1342 12.2405 18.0399L12.1722 17.9616L12.1122 17.8699L10.4722 15.0307C11.6266 14.9586 12.7488 14.6202 13.7506 14.042C14.7525 13.4639 15.607 12.6617 16.2472 11.6982Z" fill="#3A73EF"/>
<path d="M9.5255 15.0307L7.88716 17.8707C7.82077 17.9858 7.72787 18.0833 7.61617 18.1552C7.50448 18.2271 7.37723 18.2713 7.24501 18.2841C7.11279 18.2969 6.97943 18.278 6.85602 18.2288C6.73261 18.1797 6.62272 18.1018 6.5355 18.0016L6.47216 17.9182L6.41883 17.8232L5.33216 15.6274L2.88966 15.7857C2.75512 15.7944 2.62048 15.7703 2.49729 15.7155C2.37409 15.6608 2.266 15.577 2.18228 15.4713C2.09856 15.3656 2.0417 15.2412 2.01657 15.1088C1.99144 14.9763 1.99879 14.8397 2.038 14.7107L2.07133 14.6216L2.113 14.5382L3.753 11.6974C4.39272 12.6608 5.24672 13.4632 6.24816 14.0416C7.2496 14.62 8.3713 14.958 9.5255 15.0307Z" fill="#3A73EF"/>
<path d="M10.0005 1.7124L10.2005 1.71574C11.7121 1.76759 13.1445 2.40454 14.1954 3.49221C15.2464 4.57989 15.8339 6.03325 15.8338 7.54574L15.8313 7.70657L15.8255 7.86657L15.8105 8.07073L15.7888 8.2724L15.7688 8.42074C15.714 8.78044 15.6256 9.13421 15.5047 9.4774L15.408 9.73407L15.2805 10.0241C14.8087 11.0291 14.06 11.8786 13.1222 12.4729C12.1845 13.0671 11.0966 13.3815 9.9864 13.3791C8.87619 13.3766 7.78973 13.0574 6.8546 12.459C5.91947 11.8606 5.17449 11.0078 4.70716 10.0007L4.59883 9.75323L4.5555 9.6424L4.48883 9.46157L4.40966 9.21657C4.38139 9.12169 4.35555 9.0261 4.33216 8.9299L4.28216 8.70407L4.24133 8.47824L4.22466 8.3624L4.19216 8.09323L4.17216 7.78907L4.16716 7.54574C4.16714 6.03325 4.75457 4.57989 5.80556 3.49221C6.85654 2.40454 8.2889 1.76759 9.8005 1.71574L10.0005 1.7124Z" fill="#3A73EF"/>
</svg>
