<svg width="24" height="25" viewBox="0 0 24 25" fill="none" xmlns="http://www.w3.org/2000/svg">
<path d="M12.2968 2.51465C12.9834 2.58291 13.6288 2.88671 14.121 3.37891C14.5285 3.78642 14.8043 4.29946 14.9267 4.85352C16.0241 5.47015 16.9628 6.33884 17.664 7.39062C18.4693 8.59859 18.9309 10.0029 18.9989 11.4531C18.9997 11.4687 18.9999 11.4844 18.9999 11.5V14.4258C19.0614 14.8754 19.2226 15.3057 19.4745 15.6836C19.7351 16.0744 20.0844 16.3984 20.4931 16.6299C20.8881 16.8537 21.0824 17.3158 20.9667 17.7549C20.851 18.194 20.454 18.5 19.9999 18.5H3.99992C3.54581 18.5 3.14888 18.194 3.03312 17.7549C2.91744 17.3158 3.11178 16.8537 3.50675 16.6299C3.91546 16.3984 4.26478 16.0744 4.52531 15.6836C4.77724 15.3057 4.93841 14.8754 4.99992 14.4258V11.5C4.99992 11.4844 5.00016 11.4687 5.00089 11.4531C5.06896 10.0029 5.53054 8.59859 6.33586 7.39062C7.03689 6.33908 7.97507 5.47013 9.07218 4.85352C9.19456 4.29938 9.47126 3.78647 9.87882 3.37891C10.4414 2.8163 11.2043 2.5 11.9999 2.5L12.2968 2.51465ZM11.9999 4.5C11.7347 4.5 11.4804 4.60543 11.2929 4.79297C11.1054 4.98051 10.9999 5.23478 10.9999 5.5L10.9892 5.64355C10.9416 5.97199 10.7333 6.25972 10.4277 6.4043C9.4433 6.86975 8.6039 7.59402 7.99992 8.5C7.39829 9.40244 7.05306 10.451 6.99992 11.5342V14.5C6.99992 14.5401 6.9979 14.5803 6.99308 14.6201C6.91281 15.2833 6.6994 15.922 6.36906 16.5H17.6308C17.3004 15.922 17.087 15.2833 17.0068 14.6201C17.0019 14.5803 16.9999 14.5401 16.9999 14.5V11.5342C16.9468 10.451 16.6015 9.40244 15.9999 8.5C15.3959 7.59402 14.5565 6.86975 13.5722 6.4043C13.2227 6.23897 12.9999 5.88665 12.9999 5.5C12.9999 5.23478 12.8945 4.98051 12.7069 4.79297C12.5194 4.60543 12.2651 4.5 11.9999 4.5Z" fill="#858593"/>
<path d="M7.99992 18.5V17.5C7.99992 16.9477 8.44763 16.5 8.99992 16.5C9.5522 16.5 9.99992 16.9477 9.99992 17.5V18.5C9.99992 19.0304 10.2108 19.539 10.5859 19.9141C10.9609 20.2891 11.4695 20.5 11.9999 20.5L12.1972 20.4902C12.6552 20.4449 13.0857 20.2423 13.414 19.9141C13.7891 19.539 13.9999 19.0304 13.9999 18.5V17.5C13.9999 16.9477 14.4476 16.5 14.9999 16.5C15.5522 16.5 15.9999 16.9477 15.9999 17.5V18.5C15.9999 19.5609 15.5782 20.578 14.828 21.3281C14.1248 22.0314 13.1868 22.4461 12.1982 22.4951L11.9999 22.5C10.9391 22.5 9.92194 22.0783 9.17179 21.3281C8.42165 20.578 7.99992 19.5609 7.99992 18.5Z" fill="#858593"/>
</svg>
