<svg width="20" height="21" viewBox="0 0 20 21" fill="none" xmlns="http://www.w3.org/2000/svg">
<path d="M18.1637 6.78815L8.16374 16.7882C8.07664 16.8756 7.97315 16.9449 7.85919 16.9922C7.74524 17.0395 7.62306 17.0639 7.49967 17.0639C7.37628 17.0639 7.25411 17.0395 7.14016 16.9922C7.0262 16.9449 6.92271 16.8756 6.83561 16.7882L2.46061 12.4132C2.3734 12.3259 2.30423 12.2224 2.25703 12.1085C2.20984 11.9945 2.18555 11.8724 2.18555 11.7491C2.18555 11.6258 2.20984 11.5036 2.25703 11.3897C2.30423 11.2758 2.3734 11.1722 2.46061 11.085C2.54782 10.9978 2.65134 10.9286 2.76528 10.8814C2.87922 10.8343 3.00135 10.81 3.12467 10.81C3.248 10.81 3.37012 10.8343 3.48406 10.8814C3.598 10.9286 3.70153 10.9978 3.78874 11.085L7.50045 14.7967L16.8372 5.46159C17.0133 5.28547 17.2522 5.18652 17.5012 5.18652C17.7503 5.18652 17.9892 5.28547 18.1653 5.46159C18.3414 5.63771 18.4404 5.87658 18.4404 6.12565C18.4404 6.37472 18.3414 6.61359 18.1653 6.78971L18.1637 6.78815Z" fill="#1DD05F"/>
</svg>
