<svg width="17" height="17" viewBox="0 0 17 17" fill="none" xmlns="http://www.w3.org/2000/svg">
<path d="M11.1668 6.08333C11.535 6.08333 11.8335 6.38181 11.8335 6.75C11.8335 7.11819 11.535 7.41667 11.1668 7.41667H5.8335C5.46531 7.41667 5.16683 7.11819 5.16683 6.75C5.16683 6.38181 5.46531 6.08333 5.8335 6.08333H11.1668Z" fill="#858593"/>
<path d="M9.8335 8.75C10.2017 8.75 10.5002 9.04848 10.5002 9.41667C10.5002 9.78486 10.2017 10.0833 9.8335 10.0833H5.8335C5.46531 10.0833 5.16683 9.78486 5.16683 9.41667C5.16683 9.04848 5.46531 8.75 5.8335 8.75H9.8335Z" fill="#858593"/>
<path d="M13.8335 5.41667C13.8335 5.06304 13.6929 4.72401 13.4429 4.47396C13.1928 4.22391 12.8538 4.08333 12.5002 4.08333H4.50016C4.14654 4.08333 3.8075 4.22391 3.55745 4.47396C3.30741 4.72401 3.16683 5.06304 3.16683 5.41667V10.75L3.17334 10.8815C3.20359 11.1868 3.3386 11.4739 3.55745 11.6927C3.8075 11.9428 4.14654 12.0833 4.50016 12.0833H5.8335C6.20169 12.0833 6.50016 12.3818 6.50016 12.75V13.5723L8.82373 12.1784L8.90446 12.1374C8.98711 12.102 9.07629 12.0833 9.16683 12.0833H12.5002L12.6317 12.0768C12.937 12.0466 13.224 11.9116 13.4429 11.6927C13.6617 11.4739 13.7967 11.1868 13.827 10.8815L13.8335 10.75V5.41667ZM15.1668 10.75C15.1668 11.4572 14.8857 12.1353 14.3856 12.6354C13.8855 13.1355 13.2074 13.4167 12.5002 13.4167H9.35173L6.1766 15.3216C5.97064 15.4452 5.71373 15.4484 5.50472 15.3301C5.29587 15.2117 5.16683 14.9901 5.16683 14.75V13.4167H4.50016C3.79292 13.4167 3.11484 13.1355 2.61475 12.6354C2.11465 12.1353 1.8335 11.4572 1.8335 10.75V5.41667C1.8335 4.70942 2.11465 4.03135 2.61475 3.53125C3.11484 3.03115 3.79292 2.75 4.50016 2.75H12.5002C13.2074 2.75 13.8855 3.03115 14.3856 3.53125C14.8857 4.03135 15.1668 4.70942 15.1668 5.41667V10.75Z" fill="#858593"/>
</svg>
