<svg width="24" height="24" viewBox="0 0 24 24" fill="none" xmlns="http://www.w3.org/2000/svg">
<path d="M16 2C16.183 2 16.355 2.05 16.502 2.135L16.535 2.155C16.815 2.332 17 2.645 17 3V4H18C18.7652 3.99996 19.5015 4.29233 20.0583 4.81728C20.615 5.34224 20.9501 6.06011 20.995 6.824L21 7V19C21 19.7652 20.7077 20.5015 20.1827 21.0583C19.6578 21.615 18.9399 21.9501 18.176 21.995L18 22H6C5.23479 22 4.49849 21.7077 3.94174 21.1827C3.38499 20.6578 3.04989 19.9399 3.005 19.176L3 19V7C2.99996 6.23479 3.29233 5.49849 3.81728 4.94174C4.34224 4.38499 5.06011 4.04989 5.824 4.005L6 4H7V3C6.99999 2.82173 7.04764 2.64669 7.13802 2.49302C7.22839 2.33936 7.3582 2.21264 7.514 2.126L7.607 2.08L7.673 2.055L7.773 2.026L7.88 2.007L8 2C8.05533 2 8.109 2.00433 8.161 2.013L8.283 2.042L8.323 2.054L8.383 2.077C8.711 2.212 8.951 2.517 8.993 2.883L9 3V4H15V3C15 2.73478 15.1054 2.48043 15.2929 2.29289C15.4804 2.10536 15.7348 2 16 2ZM19 9H5V18.625C5 19.33 5.386 19.911 5.883 19.991L6 20H18C18.513 20 18.936 19.47 18.993 18.785L19 18.625V9Z" fill="#AEAEB7"/>
<path d="M9.015 13C9.015 13.2652 8.90964 13.5196 8.72211 13.7071C8.53457 13.8946 8.28022 14 8.015 14C7.87994 14.0064 7.74498 13.9853 7.61828 13.9381C7.49158 13.8909 7.37576 13.8185 7.27781 13.7253C7.17985 13.6321 7.1018 13.52 7.04835 13.3958C6.99491 13.2716 6.96718 13.1378 6.96684 13.0026C6.9665 12.8674 6.99356 12.7335 7.04639 12.6091C7.09921 12.4846 7.1767 12.3721 7.27419 12.2784C7.37167 12.1847 7.48713 12.1117 7.6136 12.0639C7.74006 12.016 7.87491 11.9943 8.01 12C8.567 12 9.015 12.448 9.015 13Z" fill="#AEAEB7"/>
<path d="M13.015 13C13.015 13.2652 12.9096 13.5196 12.7221 13.7071C12.5346 13.8946 12.2802 14 12.015 14C11.8799 14.0064 11.745 13.9853 11.6183 13.9381C11.4916 13.8909 11.3758 13.8185 11.2778 13.7253C11.1799 13.6321 11.1018 13.52 11.0484 13.3958C10.9949 13.2716 10.9672 13.1378 10.9668 13.0026C10.9665 12.8674 10.9936 12.7335 11.0464 12.6091C11.0992 12.4846 11.1767 12.3721 11.2742 12.2784C11.3717 12.1847 11.4871 12.1117 11.6136 12.0639C11.7401 12.016 11.8749 11.9943 12.01 12C12.567 12 13.015 12.448 13.015 13Z" fill="#AEAEB7"/>
<path d="M17.02 13C17.02 13.2652 16.9146 13.5196 16.7271 13.7071C16.5396 13.8946 16.2852 14 16.02 14C15.8849 14.0064 15.75 13.9853 15.6233 13.9381C15.4966 13.8909 15.3808 13.8185 15.2828 13.7253C15.1849 13.6321 15.1068 13.52 15.0534 13.3958C14.9999 13.2716 14.9722 13.1378 14.9718 13.0026C14.9715 12.8674 14.9986 12.7335 15.0514 12.6091C15.1042 12.4846 15.1817 12.3721 15.2792 12.2784C15.3767 12.1847 15.4921 12.1117 15.6186 12.0639C15.7451 12.016 15.8799 11.9943 16.015 12C16.572 12 17.02 12.448 17.02 13Z" fill="#AEAEB7"/>
<path d="M12.02 15C12.2852 15 12.5396 15.1054 12.7271 15.2929C12.9146 15.4804 13.02 15.7348 13.02 16C13.02 16.2652 12.9146 16.5196 12.7271 16.7071C12.5396 16.8946 12.2852 17 12.02 17C11.8849 17.0064 11.75 16.9853 11.6233 16.9381C11.4966 16.8909 11.3808 16.8185 11.2828 16.7253C11.1849 16.6321 11.1068 16.52 11.0534 16.3958C10.9999 16.2716 10.9722 16.1378 10.9718 16.0026C10.9715 15.8674 10.9986 15.7335 11.0514 15.6091C11.1042 15.4846 11.1817 15.3721 11.2792 15.2784C11.3767 15.1847 11.4921 15.1117 11.6186 15.0639C11.7451 15.016 11.8799 14.9943 12.015 15H12.02Z" fill="#AEAEB7"/>
<path d="M9.015 16C9.015 16.2652 8.90964 16.5196 8.72211 16.7071C8.53457 16.8946 8.28022 17 8.015 17C7.87994 17.0064 7.74498 16.9853 7.61828 16.9381C7.49158 16.8909 7.37576 16.8185 7.27781 16.7253C7.17985 16.6321 7.1018 16.52 7.04835 16.3958C6.99491 16.2716 6.96718 16.1378 6.96684 16.0026C6.9665 15.8674 6.99356 15.7335 7.04639 15.6091C7.09921 15.4846 7.1767 15.3721 7.27419 15.2784C7.37167 15.1847 7.48713 15.1117 7.6136 15.0639C7.74006 15.016 7.87491 14.9943 8.01 15C8.567 15 9.015 15.448 9.015 16Z" fill="#AEAEB7"/>
</svg>
