<svg width="24" height="24" viewBox="0 0 24 24" fill="none" xmlns="http://www.w3.org/2000/svg">
<path d="M8.99938 12.001C8.99936 11.2056 9.315 10.4425 9.87731 9.87989C10.2678 9.4893 10.9018 9.48944 11.2923 9.87989C11.6826 10.2704 11.6826 10.9035 11.2923 11.294C11.1049 11.4815 10.9994 11.7358 10.9994 12.001C10.9994 12.2662 11.1048 12.5205 11.2923 12.708C11.4799 12.8955 11.7342 13.001 11.9994 13.001C12.2645 13.0009 12.5189 12.8955 12.7064 12.708C13.0968 12.3174 13.7299 12.3176 14.1205 12.708C14.511 13.0985 14.5118 13.7315 14.1214 14.1221C13.559 14.6847 12.7959 15.0007 12.0004 15.001C11.2047 15.0011 10.441 14.6855 9.87828 14.1231C9.31557 13.5605 8.99952 12.7966 8.99938 12.001Z" fill="#AEAEB7"/>
<path d="M6.7929 6.47548C7.26241 6.18466 7.87903 6.33018 8.16985 6.7997C8.46049 7.26911 8.31587 7.88483 7.84661 8.17568C6.5343 8.98852 5.30568 10.247 4.17766 11.9999C6.39097 15.4408 9.00116 16.9999 11.9999 16.9999H12.0068C13.4715 17.0095 14.9086 16.602 16.1503 15.8251C16.6184 15.5322 17.2353 15.6745 17.5282 16.1425C17.8212 16.6107 17.6791 17.2275 17.2109 17.5204C15.6491 18.4975 13.842 19.0098 11.9999 18.9989H11.997C11.9958 18.9989 11.9943 18.9999 11.9931 18.9999C7.94072 18.9973 4.66077 16.7116 2.14251 12.5145C1.9525 12.1979 1.9525 11.8019 2.14251 11.4852C3.47214 9.26924 5.01442 7.57712 6.7929 6.47548ZM12.0019 5.00087C16.0565 5.0016 19.3381 7.28655 21.8574 11.4852C22.0474 11.8019 22.0474 12.1979 21.8574 12.5145C21.1603 13.6762 20.405 14.693 19.5888 15.5565C19.2094 15.9579 18.5761 15.9759 18.1747 15.5966C17.7736 15.2172 17.7564 14.5848 18.1357 14.1835C18.7207 13.5645 19.2821 12.8366 19.8212 11.9989C17.6081 8.55888 14.9984 6.99989 11.9999 6.99989H11.997C11.4534 6.99852 10.9106 7.0522 10.3779 7.16005C9.83689 7.2693 9.3099 6.91966 9.20012 6.3788C9.09056 5.83756 9.44018 5.30976 9.98137 5.20009C10.6457 5.0656 11.3221 4.9993 11.9999 5.00087H12.0019Z" fill="#AEAEB7"/>
<path d="M2.2929 2.29289C2.68342 1.90237 3.31644 1.90237 3.70696 2.29289L21.707 20.2929C22.0975 20.6834 22.0975 21.3164 21.707 21.707C21.3164 22.0975 20.6834 22.0975 20.2929 21.707L2.2929 3.70696C1.90237 3.31643 1.90237 2.68342 2.2929 2.29289Z" fill="#AEAEB7"/>
</svg>
