<svg width="21" height="21" viewBox="0 0 21 21" fill="none" xmlns="http://www.w3.org/2000/svg">
<path d="M14.667 3.28357C15.9338 4.01498 16.9858 5.06697 17.7172 6.3338C18.4486 7.60064 18.8337 9.03769 18.8337 10.5005C18.8337 11.9633 18.4486 13.4004 17.7172 14.6672C16.9857 15.934 15.9337 16.986 14.6669 17.7174C13.4001 18.4488 11.963 18.8338 10.5002 18.8338C9.03738 18.8338 7.60034 18.4487 6.33352 17.7172C5.0667 16.9858 4.01473 15.9338 3.28335 14.667C2.55198 13.4001 2.16696 11.9631 2.16699 10.5002L2.17116 10.2302C2.21783 8.79106 2.63662 7.38854 3.38669 6.1594C4.13677 4.93026 5.19254 3.91645 6.45107 3.2168C7.7096 2.51716 9.12795 2.15557 10.5678 2.16727C12.0077 2.17897 13.42 2.56357 14.667 3.28357ZM10.5003 13.0002C10.2793 13.0002 10.0674 13.088 9.91107 13.2443C9.75479 13.4006 9.66699 13.6126 9.66699 13.8336V13.8419C9.66699 14.0629 9.75479 14.2749 9.91107 14.4312C10.0674 14.5874 10.2793 14.6752 10.5003 14.6752C10.7213 14.6752 10.9333 14.5874 11.0896 14.4312C11.2459 14.2749 11.3337 14.0629 11.3337 13.8419V13.8336C11.3337 13.6126 11.2459 13.4006 11.0896 13.2443C10.9333 13.088 10.7213 13.0002 10.5003 13.0002ZM10.5003 7.1669C10.2793 7.1669 10.0674 7.2547 9.91107 7.41098C9.75479 7.56726 9.66699 7.77922 9.66699 8.00024V11.3336C9.66699 11.5546 9.75479 11.7665 9.91107 11.9228C10.0674 12.0791 10.2793 12.1669 10.5003 12.1669C10.7213 12.1669 10.9333 12.0791 11.0896 11.9228C11.2459 11.7665 11.3337 11.5546 11.3337 11.3336V8.00024C11.3337 7.77922 11.2459 7.56726 11.0896 7.41098C10.9333 7.2547 10.7213 7.1669 10.5003 7.1669Z" fill="#F53A3E"/>
</svg>
