<svg width="24" height="24" viewBox="0 0 24 24" fill="none" xmlns="http://www.w3.org/2000/svg">
<path d="M12.9999 12C12.9999 11.7348 12.8945 11.4805 12.707 11.293C12.5194 11.1054 12.2651 11 11.9999 11C11.7347 11 11.4804 11.1054 11.2929 11.293C11.1054 11.4805 10.9999 11.7348 10.9999 12C10.9999 12.2652 11.1054 12.5195 11.2929 12.707C11.4804 12.8946 11.7347 13 11.9999 13C12.2651 13 12.5194 12.8946 12.707 12.707C12.8945 12.5195 12.9999 12.2652 12.9999 12ZM14.9999 12C14.9999 12.7957 14.6836 13.5585 14.121 14.1211C13.5584 14.6837 12.7956 15 11.9999 15C11.2043 15 10.4414 14.6837 9.87884 14.1211C9.31623 13.5585 8.99993 12.7957 8.99993 12C8.99993 11.2043 9.31623 10.4415 9.87884 9.87891C10.4414 9.3163 11.2043 9 11.9999 9C12.7956 9 13.5584 9.3163 14.121 9.87891C14.6836 10.4415 14.9999 11.2043 14.9999 12Z" fill="#AEAEB7"/>
<path d="M11.9999 5C16.0554 5 19.3377 7.28597 21.8574 11.4854C22.0474 11.802 22.0474 12.198 21.8574 12.5146C19.3377 16.714 16.0554 19 11.9999 19C7.94442 19 4.66218 16.714 2.14251 12.5146C1.9525 12.198 1.9525 11.802 2.14251 11.4854C4.66218 7.28597 7.94442 5 11.9999 5ZM11.9999 7C9.00117 7 6.39097 8.55916 4.17766 12C6.39097 15.4408 9.00117 17 11.9999 17C14.9986 17 17.608 15.4405 19.8212 12C17.608 8.55947 14.9986 7 11.9999 7Z" fill="#AEAEB7"/>
</svg>
