<svg width="19" height="18" viewBox="0 0 19 18" fill="none" xmlns="http://www.w3.org/2000/svg">
<path d="M14.2461 5.625C14.2461 5.44505 14.2109 5.26684 14.1421 5.10059C14.0732 4.93421 13.9721 4.78261 13.8447 4.65527C13.7175 4.5281 13.5663 4.42753 13.4001 4.35864C13.2338 4.28973 13.0551 4.25391 12.875 4.25391C12.6949 4.25391 12.5162 4.28973 12.3499 4.35864C12.1837 4.42753 12.0325 4.5281 11.9053 4.65527L4.25 12.3105V14.25H6.18945L13.8447 6.59473C13.972 6.46743 14.0732 6.31645 14.1421 6.15015C14.211 5.98377 14.2461 5.80509 14.2461 5.625ZM15.7461 5.625C15.7461 6.00207 15.6721 6.376 15.5278 6.72437C15.3836 7.07258 15.1718 7.38874 14.9053 7.65527L7.03027 15.5303C6.88962 15.6709 6.69891 15.75 6.5 15.75H3.5C3.08579 15.75 2.75 15.4142 2.75 15V12L2.75366 11.926C2.77072 11.7544 2.84667 11.5928 2.96973 11.4697L10.8447 3.59473C11.1113 3.32815 11.4281 3.11644 11.7764 2.97217C12.1247 2.82794 12.498 2.75391 12.875 2.75391C13.252 2.75391 13.6253 2.82794 13.9736 2.97217C14.3219 3.11644 14.6387 3.32815 14.9053 3.59473C15.1719 3.86135 15.3835 4.17801 15.5278 4.52637C15.6721 4.87466 15.7461 5.24801 15.7461 5.625Z" fill="#54545E"/>
<path d="M10.0947 4.34495C10.3876 4.05206 10.8624 4.05206 11.1553 4.34495L14.1553 7.34495C14.4482 7.63785 14.4482 8.11261 14.1553 8.4055C13.8624 8.69839 13.3876 8.69839 13.0947 8.4055L10.0947 5.4055C9.80183 5.11261 9.80183 4.63785 10.0947 4.34495Z" fill="#54545E"/>
<path d="M17 13.5002C17.4142 13.5002 17.75 13.836 17.75 14.2502C17.75 14.6644 17.4142 15.0002 17 15.0002H12.5C12.0858 15.0002 11.75 14.6644 11.75 14.2502C11.75 13.836 12.0858 13.5002 12.5 13.5002H17Z" fill="#54545E"/>
</svg>
