<svg width="24" height="24" viewBox="0 0 24 24" fill="none" xmlns="http://www.w3.org/2000/svg">
<path d="M6.17786 3.2678C6.9675 3.01802 7.80061 2.93484 8.62415 3.02269C9.44761 3.11057 10.2439 3.36784 10.963 3.77855C11.3371 3.99221 11.6857 4.24555 12.004 4.53245C12.3221 4.24888 12.6702 3.9992 13.0431 3.78831C13.7618 3.3819 14.5568 3.12834 15.3781 3.04319C16.1994 2.95808 17.0297 3.04277 17.8165 3.29319C18.6034 3.54363 19.3303 3.95408 19.9513 4.49827C20.5722 5.04243 21.0744 5.70923 21.4259 6.45628C21.7774 7.20329 21.9708 8.01484 21.9943 8.84007C22.0177 9.66546 21.8702 10.4872 21.5616 11.2532C21.2531 12.0188 20.7902 12.7128 20.2013 13.2912C20.1832 13.309 20.1637 13.325 20.1447 13.341L12.7042 20.7102C12.3145 21.0962 11.6867 21.0962 11.297 20.7102L3.797 13.2825V13.2815C3.20652 12.7051 2.74076 12.0136 2.42981 11.2492C2.11771 10.482 1.96757 9.65831 1.98938 8.8303C2.01122 8.00236 2.20472 7.18742 2.55676 6.43773C2.90883 5.68818 3.4122 5.01934 4.03528 4.47386C4.65847 3.92832 5.3882 3.51763 6.17786 3.2678ZM8.41126 5.01097C7.86232 4.95248 7.30673 5.00851 6.7804 5.17503C6.25415 5.3416 5.76799 5.61516 5.35266 5.97874C4.93718 6.34248 4.60105 6.78847 4.36634 7.28831C4.13169 7.78807 4.00296 8.33113 3.98841 8.88304C3.97387 9.43494 4.07436 9.98393 4.28235 10.4953C4.46446 10.943 4.7261 11.3536 5.05384 11.7073L5.19739 11.8557L5.20423 11.8616L12.0001 18.592L18.797 11.8616C18.811 11.8477 18.8254 11.8344 18.84 11.8215C19.2129 11.4443 19.5088 10.9975 19.7072 10.5051C19.9128 9.99461 20.0109 9.44683 19.9952 8.89671C19.9795 8.34668 19.8506 7.80574 19.6163 7.30784C19.3819 6.80976 19.047 6.36497 18.6329 6.00218C18.219 5.63948 17.7345 5.36639 17.2101 5.19945C16.6855 5.03249 16.1317 4.97571 15.5841 5.03245C15.0367 5.08923 14.5065 5.25763 14.0275 5.52855C13.5484 5.79946 13.1307 6.16682 12.7999 6.60667C12.6104 6.85869 12.3125 7.00696 11.9972 7.00609C11.6821 7.00507 11.3854 6.85571 11.1974 6.60277C10.868 6.15964 10.4512 5.78874 9.9718 5.51487C9.4923 5.241 8.96035 5.06954 8.41126 5.01097Z" fill="black"/>
</svg>
