<svg width="21" height="19" viewBox="0 0 21 19" fill="none" xmlns="http://www.w3.org/2000/svg">
<path d="M5.97913 1.07401C6.86419 0.92321 7.77181 0.972956 8.63509 1.21958C9.49837 1.46621 10.2953 1.90343 10.9671 2.49901L11.0041 2.53201L11.0381 2.50201C11.6793 1.93931 12.4331 1.51981 13.2493 1.27149C14.0655 1.02318 14.9252 0.951766 15.7711 1.06201L16.0171 1.09801C17.0834 1.28212 18.0801 1.75117 18.9016 2.45548C19.7231 3.1598 20.3388 4.07316 20.6836 5.09885C21.0283 6.12454 21.0893 7.22437 20.86 8.28188C20.6307 9.33939 20.1197 10.3152 19.3811 11.106L19.2011 11.291L19.1531 11.332L11.7031 18.711C11.5312 18.8812 11.3034 18.9832 11.062 18.9983C10.8206 19.0134 10.5819 18.9405 10.3901 18.793L10.2961 18.711L2.80313 11.289C2.00935 10.5167 1.44483 9.53969 1.17209 8.46628C0.899345 7.39287 0.929028 6.26491 1.25785 5.20733C1.58666 4.14974 2.20179 3.20381 3.03509 2.47428C3.86839 1.74476 4.88735 1.26011 5.97913 1.07401Z" fill="black"/>
</svg>
