<svg width="20" height="20" viewBox="0 0 20 20" fill="none" xmlns="http://www.w3.org/2000/svg">
<path d="M5.8161 2.56127C6.55365 2.4356 7.31001 2.47706 8.02941 2.68258C8.7488 2.8881 9.41291 3.25245 9.97277 3.74877L10.0036 3.77627L10.0319 3.75127C10.5663 3.28235 11.1945 2.93277 11.8746 2.72584C12.5547 2.51891 13.2712 2.4594 13.9761 2.55127L14.1811 2.58127C15.0697 2.73469 15.9002 3.12557 16.5848 3.71249C17.2694 4.29942 17.7825 5.06056 18.0698 5.9153C18.3571 6.77004 18.4079 7.68657 18.2168 8.56783C18.0258 9.44909 17.5999 10.2623 16.9844 10.9213L16.8344 11.0754L16.7944 11.1096L10.5861 17.2588C10.4428 17.4006 10.253 17.4856 10.0518 17.4982C9.85065 17.5108 9.65173 17.45 9.49194 17.3271L9.4136 17.2588L3.16943 11.0738C2.50795 10.4302 2.03752 9.616 1.81023 8.72149C1.58295 7.82698 1.60769 6.88702 1.8817 6.0057C2.15572 5.12438 2.66832 4.3361 3.36274 3.72816C4.05716 3.12022 4.90629 2.71635 5.8161 2.56127Z" fill="#F53A3E"/>
</svg>
