<svg width="32" height="33" viewBox="0 0 32 33" fill="none" xmlns="http://www.w3.org/2000/svg">
<path d="M20.0129 9.83366C20.7492 9.83366 21.3462 10.4306 21.3462 11.167C21.3462 11.9034 20.7492 12.5003 20.0129 12.5003H19.9998C19.2635 12.5003 18.6665 11.9034 18.6665 11.167C18.6665 10.4306 19.2635 9.83366 19.9998 9.83366H20.0129Z" fill="#D7D7DB"/>
<path d="M26.6665 17.167V8.50033C26.6665 7.79308 26.3854 7.11501 25.8853 6.61491C25.3852 6.11481 24.7071 5.83366 23.9998 5.83366H7.99984C7.29259 5.83366 6.61452 6.11481 6.11442 6.61491C5.61432 7.11501 5.33317 7.79308 5.33317 8.50033V24.5003L5.34619 24.7633C5.4067 25.374 5.67671 25.948 6.11442 26.3857C6.61452 26.8858 7.29259 27.167 7.99984 27.167H16.6665C17.4029 27.167 17.9998 27.7639 17.9998 28.5003C17.9998 29.2367 17.4029 29.8337 16.6665 29.8337H7.99984C6.58535 29.8337 5.2292 29.2714 4.229 28.2712C3.22881 27.271 2.6665 25.9148 2.6665 24.5003V8.50033C2.6665 7.08584 3.22881 5.72969 4.229 4.72949C5.2292 3.7293 6.58535 3.16699 7.99984 3.16699H23.9998C25.4143 3.16699 26.7705 3.7293 27.7707 4.72949C28.7709 5.72969 29.3332 7.08584 29.3332 8.50033V17.167C29.3332 17.9034 28.7362 18.5003 27.9998 18.5003C27.2635 18.5003 26.6665 17.9034 26.6665 17.167Z" fill="#D7D7DB"/>
<path d="M12.6665 12.9407C13.7635 12.9407 14.7721 13.4183 15.591 14.2063L20.9425 19.5578C21.4631 20.0786 21.4632 20.9226 20.9425 21.4433C20.4219 21.9638 19.5778 21.9638 19.0571 21.4433L13.742 16.1282L13.5871 15.9901C13.2315 15.6978 12.9153 15.6073 12.6665 15.6073C12.3822 15.6073 12.0095 15.7255 11.591 16.1282L4.94255 22.7766C4.42188 23.2971 3.5778 23.2971 3.05713 22.7766C2.53647 22.2559 2.53654 21.4119 3.05713 20.8912L9.74202 14.2063C10.5609 13.4183 11.5695 12.9407 12.6665 12.9407Z" fill="#D7D7DB"/>
<path d="M19.0754 16.8721C20.2789 15.7153 21.8547 15.2745 23.3918 15.8708C24.0781 16.1373 24.4185 16.9097 24.1522 17.5961C23.8858 18.2825 23.1134 18.6228 22.4269 18.3565C22.012 18.1956 21.5074 18.2349 20.9243 18.7953L19.6092 20.1104C19.0886 20.6306 18.2444 20.6306 17.7238 20.1104C17.2031 19.5897 17.2031 18.7444 17.7238 18.2237L19.0754 16.8721Z" fill="#D7D7DB"/>
<path d="M29.3332 24.5003C30.0696 24.5003 30.6665 25.0973 30.6665 25.8337C30.6665 26.57 30.0696 27.167 29.3332 27.167H21.3332C20.5968 27.167 19.9998 26.57 19.9998 25.8337C19.9998 25.0973 20.5968 24.5003 21.3332 24.5003H29.3332Z" fill="#D7D7DB"/>
<path d="M23.9998 29.8337V21.8337C23.9998 21.0973 24.5968 20.5003 25.3332 20.5003C26.0696 20.5003 26.6665 21.0973 26.6665 21.8337V29.8337C26.6665 30.57 26.0696 31.167 25.3332 31.167C24.5968 31.167 23.9998 30.57 23.9998 29.8337Z" fill="#D7D7DB"/>
</svg>
