<svg width="18" height="18" viewBox="0 0 18 18" fill="none" xmlns="http://www.w3.org/2000/svg">
<path d="M11.2573 5.25C11.6715 5.25 12.0073 5.58579 12.0073 6C12.0073 6.41421 11.6715 6.75 11.2573 6.75H11.25C10.8358 6.75 10.5 6.41421 10.5 6C10.5 5.58579 10.8358 5.25 11.25 5.25H11.2573Z" fill="#54545E"/>
<path d="M15 4.5C15 4.10217 14.8419 3.72076 14.5605 3.43945C14.2792 3.15815 13.8978 3 13.5 3H4.5C4.10218 3 3.72076 3.15815 3.43945 3.43945C3.15815 3.72076 3 4.10218 3 4.5V13.5L3.00732 13.6479C3.04136 13.9914 3.19324 14.3143 3.43945 14.5605C3.72076 14.8419 4.10217 15 4.5 15H13.5L13.6479 14.9927C13.9914 14.9586 14.3143 14.8068 14.5605 14.5605C14.8068 14.3143 14.9586 13.9914 14.9927 13.6479L15 13.5V4.5ZM16.5 13.5C16.5 14.2956 16.1837 15.0585 15.6211 15.6211C15.0585 16.1837 14.2956 16.5 13.5 16.5H4.5C3.70435 16.5 2.94152 16.1837 2.37891 15.6211C1.8163 15.0585 1.5 14.2956 1.5 13.5V4.5C1.5 3.70435 1.8163 2.94152 2.37891 2.37891C2.94152 1.8163 3.70435 1.5 4.5 1.5H13.5C14.2956 1.5 15.0585 1.8163 15.6211 2.37891C16.1837 2.94152 16.5 3.70435 16.5 4.5V13.5Z" fill="#54545E"/>
<path d="M7.12491 6.99805C7.74197 6.99805 8.30932 7.26672 8.76993 7.70996L12.5302 11.4702C12.823 11.7631 12.8231 12.2379 12.5302 12.5308C12.2373 12.8236 11.7625 12.8236 11.4696 12.5308L7.72989 8.79102L7.64273 8.71338C7.44272 8.54894 7.26487 8.49805 7.12491 8.49805C6.96497 8.49805 6.75532 8.5645 6.51993 8.79102L2.78018 12.5308C2.48731 12.8236 2.01251 12.8236 1.71964 12.5308C1.42677 12.2379 1.42681 11.7631 1.71964 11.4702L5.47989 7.70996C5.9405 7.26672 6.50785 6.99805 7.12491 6.99805Z" fill="#54545E"/>
<path d="M12.3749 8.49805C12.992 8.49805 13.5593 8.76672 14.0199 9.20996L16.2802 11.4702C16.573 11.7631 16.5731 12.2379 16.2802 12.5308C15.9873 12.8236 15.5125 12.8236 15.2196 12.5308L12.9799 10.291L12.8927 10.2134C12.6927 10.0489 12.5149 9.99805 12.3749 9.99805C12.215 9.99805 12.0053 10.0645 11.7699 10.291L11.0302 11.0308C10.7373 11.3236 10.2625 11.3236 9.96964 11.0308C9.67677 10.7379 9.67681 10.2631 9.96964 9.97021L10.7299 9.20996C11.1905 8.76672 11.7579 8.49805 12.3749 8.49805Z" fill="#54545E"/>
</svg>
