<svg width="20" height="20" viewBox="0 0 20 20" fill="none" xmlns="http://www.w3.org/2000/svg">
<g clip-path="url(#clip0_2405_1805)">
<path d="M13.3275 8.0874C13.2993 7.51477 13.1722 6.95074 12.9523 6.41992C12.701 5.81329 12.3326 5.26231 11.8683 4.79801C11.404 4.33372 10.853 3.9653 10.2464 3.71403C9.7156 3.49417 9.15157 3.36705 8.57894 3.33887L8.33317 3.33317C7.67658 3.33317 7.02653 3.46277 6.41992 3.71403C5.81329 3.9653 5.26231 4.33372 4.79801 4.79801C4.33372 5.26231 3.9653 5.81329 3.71403 6.41992C3.46277 7.02653 3.33317 7.67658 3.33317 8.33317L3.33887 8.57894C3.36705 9.15157 3.49417 9.7156 3.71403 10.2464C3.9653 10.853 4.33372 11.404 4.79801 11.8683C5.26231 12.3326 5.81329 12.701 6.41992 12.9523C7.02653 13.2036 7.67658 13.3332 8.33317 13.3332C8.98976 13.3332 9.63981 13.2036 10.2464 12.9523C10.853 12.701 11.404 12.3326 11.8683 11.8683C12.3326 11.404 12.701 10.853 12.9523 10.2464C13.2036 9.63981 13.3332 8.98976 13.3332 8.33317L13.3275 8.0874ZM14.9917 8.66113C14.9541 9.42457 14.7852 10.1768 14.492 10.8844C14.157 11.6932 13.6665 12.4285 13.0475 13.0475C12.4285 13.6665 11.6932 14.157 10.8844 14.492C10.0756 14.8271 9.20865 14.9998 8.33317 14.9998C7.45769 14.9998 6.59074 14.8271 5.7819 14.492C4.97313 14.157 4.23783 13.6665 3.61882 13.0475C2.9998 12.4285 2.50935 11.6932 2.17432 10.8844C1.88118 10.1768 1.71224 9.42457 1.67464 8.66113L1.6665 8.33317C1.6665 7.45769 1.83929 6.59074 2.17432 5.7819C2.50935 4.97313 2.9998 4.23783 3.61882 3.61882C4.23783 2.9998 4.97313 2.50935 5.7819 2.17432C6.59074 1.83928 7.45769 1.6665 8.33317 1.6665L8.66113 1.67464C9.42457 1.71224 10.1768 1.88118 10.8844 2.17432C11.6932 2.50935 12.4285 2.9998 13.0475 3.61882C13.6665 4.23783 14.157 4.97313 14.492 5.7819C14.8271 6.59074 14.9998 7.45769 14.9998 8.33317L14.9917 8.66113Z" fill="#3E3E48"/>
<path d="M11.9106 11.9106C12.236 11.5851 12.7635 11.5851 13.089 11.9106L18.089 16.9106C18.4144 17.236 18.4144 17.7635 18.089 18.089C17.7635 18.4144 17.236 18.4144 16.9106 18.089L11.9106 13.089C11.5851 12.7635 11.5851 12.236 11.9106 11.9106Z" fill="#3E3E48"/>
</g>
<defs>
<clipPath id="clip0_2405_1805">
<rect width="20" height="20" fill="white"/>
</clipPath>
</defs>
</svg>
