<svg width="16" height="16" viewBox="0 0 16 16" fill="none" xmlns="http://www.w3.org/2000/svg">
<path d="M8.00031 13.1366L7.9977 13.1353L7.97361 13.1535C6.54234 14.1514 5.43742 14.6784 4.5921 14.7238L4.47361 14.7271C2.64228 14.7271 2.40845 12.967 3.32778 9.89762L3.36424 9.77913L3.29718 9.729C-0.739957 6.63708 -0.0662867 4.49738 5.00031 4.35205L5.13442 4.3488L5.21124 4.13135C6.00058 1.91135 6.82881 0.741092 7.89614 0.669759L8.00031 0.666504V13.1366Z" fill="#FEC84B"/>
<path d="M8.00018 13.1366L8.00279 13.1353L8.02687 13.1535C9.45815 14.1514 10.5631 14.6784 11.4084 14.7238L11.5269 14.7271C13.3582 14.7271 13.592 12.967 12.6727 9.89762L12.6362 9.77913L12.7033 9.729C16.7404 6.63708 16.0668 4.49738 11.0002 4.35205L10.8661 4.3488L10.7892 4.13135C9.99991 1.91135 9.17168 0.741092 8.10435 0.669759L8.00018 0.666504V13.1366Z" fill="#D7D7DB"/>
</svg>
