<svg width="16" height="16" viewBox="0 0 16 16" fill="none" xmlns="http://www.w3.org/2000/svg">
<path d="M11.4055 14.7232C10.5615 14.6778 9.45614 14.1505 8.0248 13.1532L7.99814 13.1352L7.97347 13.1532C6.54214 14.1512 5.43747 14.6785 4.59214 14.7238L4.47347 14.7272C2.64214 14.7272 2.4088 12.9672 3.32814 9.89784L3.36414 9.77917L3.29747 9.72917C-0.739863 6.63717 -0.066529 4.49717 5.00014 4.35184L5.1348 4.3485L5.21147 4.13117C6.0008 1.91117 6.8288 0.741171 7.89614 0.669837L8.00014 0.666504C9.11614 0.666504 9.97147 1.83984 10.7881 4.13117L10.8641 4.3485L11.0001 4.35184C16.0668 4.49717 16.7401 6.63717 12.7021 9.7285L12.6341 9.7785L12.6708 9.89717C13.5708 12.9052 13.3641 14.6552 11.6335 14.7238L11.5248 14.7258L11.4055 14.7232Z" fill="#FEC84B"/>
</svg>
