<svg width="24" height="24" viewBox="0 0 24 24" fill="none" xmlns="http://www.w3.org/2000/svg">
<path d="M20 6C20.5523 6 21 6.44772 21 7C21 7.55228 20.5523 8 20 8H4C3.44772 8 3 7.55228 3 7C3 6.44772 3.44772 6 4 6H20Z" fill="#F53A3E"/>
<path d="M19.083 6.00391C19.6334 6.04977 20.042 6.53263 19.9961 7.08301L18.9961 19.083C18.9749 19.8485 18.6641 20.5781 18.1211 21.1211C17.5585 21.6837 16.7957 22 16 22H8C7.20435 22 6.44151 21.6837 5.87891 21.1211C5.33591 20.5781 5.02509 19.8485 5.00391 19.083L4.00391 7.08301C3.95804 6.53263 4.36662 6.04977 4.91699 6.00391C5.46737 5.95804 5.95023 6.36662 5.99609 6.91699L6.99609 18.917C6.9984 18.9446 7 18.9723 7 19C7 19.2652 7.10543 19.5195 7.29297 19.707C7.48051 19.8946 7.73478 20 8 20H16C16.2652 20 16.5195 19.8946 16.707 19.707C16.8946 19.5195 17 19.2652 17 19L17.0039 18.917L18.0039 6.91699C18.0498 6.36662 18.5326 5.95804 19.083 6.00391Z" fill="#F53A3E"/>
<path d="M14 7V4H10V7C10 7.55228 9.55228 8 9 8C8.44772 8 8 7.55228 8 7V4C8 3.46957 8.21087 2.96101 8.58594 2.58594C8.96101 2.21086 9.46957 2 10 2H14C14.5304 2 15.039 2.21086 15.4141 2.58594C15.7891 2.96101 16 3.46957 16 4V7C16 7.55228 15.5523 8 15 8C14.4477 8 14 7.55228 14 7Z" fill="#F53A3E"/>
<path d="M13.293 11.293C13.6835 10.9024 14.3165 10.9024 14.707 11.293C15.0976 11.6835 15.0976 12.3165 14.707 12.707L13.4141 14L14.707 15.293C15.0976 15.6835 15.0976 16.3165 14.707 16.707C14.3165 17.0976 13.6835 17.0976 13.293 16.707L12 15.4141L10.707 16.707C10.3165 17.0976 9.68349 17.0976 9.29297 16.707C8.90244 16.3165 8.90244 15.6835 9.29297 15.293L10.5859 14L9.29297 12.707C8.90244 12.3165 8.90244 11.6835 9.29297 11.293C9.68349 10.9024 10.3165 10.9024 10.707 11.293L12 12.5859L13.293 11.293Z" fill="#F53A3E"/>
</svg>
